<?xml version="1.0" encoding="UTF-8" standalone="no"?>
<!-- Generator: Adobe Illustrator 22.0.1, SVG Export Plug-In . SVG Version: 6.00 Build 0)  -->

<svg
   version="1.0"
   id="Layer_1"
   x="0px"
   y="0px"
   viewBox="0 0 342.5 321.7"
   enable-background="new 0 0 342.5 321.7"
   xml:space="preserve"
   sodipodi:docname="golf-score.svg"
   inkscape:version="1.2.2 (b0a8486541, 2022-12-01)"
   xmlns:inkscape="http://www.inkscape.org/namespaces/inkscape"
   xmlns:sodipodi="http://sodipodi.sourceforge.net/DTD/sodipodi-0.dtd"
   xmlns="http://www.w3.org/2000/svg"
   xmlns:svg="http://www.w3.org/2000/svg"><defs
   id="defs768" /><sodipodi:namedview
   id="namedview766"
   pagecolor="#ffffff"
   bordercolor="#666666"
   borderopacity="1.0"
   inkscape:showpageshadow="2"
   inkscape:pageopacity="0.0"
   inkscape:pagecheckerboard="0"
   inkscape:deskcolor="#d1d1d1"
   showgrid="false"
   inkscape:zoom="1.4499886"
   inkscape:cx="-18.276006"
   inkscape:cy="153.10465"
   inkscape:window-width="1920"
   inkscape:window-height="1011"
   inkscape:window-x="0"
   inkscape:window-y="0"
   inkscape:window-maximized="1"
   inkscape:current-layer="g544" />
<g
   id="g763">
	<g
   id="g544"
   transform="translate(0,23.3)">
		<path
   fill="#86B345"
   d="m 0,274.9 c 0,-25.8 76.65,-46.8 171.25,-46.8 94.6,0 171.25,21 171.25,46.8 l 83,81.8 H -80 Z"
   id="path530"
   style="fill:#128043;fill-opacity:1"
   sodipodi:nodetypes="cscccc" />
		<path
   fill="#261f1c"
   d="m 179,262.2 c 0,-5.9 17.4,-10.6 38.9,-10.6 21.5,0 38.9,4.8 38.9,10.6 0,5.9 -17.4,10.6 -38.9,10.6 -21.5,0 -38.9,-4.8 -38.9,-10.6 z"
   id="path532" />
		<g
   id="g538">
			<rect
   x="214.39999"
   y="2.3"
   fill="#603D19"
   width="11.1"
   height="267.79999"
   id="rect534"
   style="fill:#3f3f37;fill-opacity:1" />
			
		</g>
		<g
   id="g542">
			<path
   fill="#7FB5DE"
   d="m 219.7,28.4 c -50,-72.1 -62.6,91.3 -112.5,18.1 6.6,20.3 12,45.1 29.9,59.1 -10.6,17.2 -15.9,22.9 -26.4,14 46.9,63.3 63.6,-76.8 109.2,2.6 0,-31.1 -0.1,-62.5 -0.2,-93.8 z"
   id="path540"
   style="fill:#043055;fill-opacity:1" />
		</g>
	</g>
	<g
   id="g761"
   transform="translate(-61.351753,-73.253666)">
		<path
   fill="#ffffff"
   d="m 163.4,281.9 c -5.4,16 -21.9,24 -37.9,18.6 -16,-5.4 -24.3,-21.5 -18.9,-37.5 5.4,-16 21.6,-24.1 37.7,-18.7 16,5.4 24.5,21.6 19.1,37.6 z"
   id="path546" />
		<g
   id="XMLID_1_">
			<g
   id="g758">
				<path
   fill="#5c5c5c"
   d="m 142.2,289.2 c 0.3,1.7 -9,2.8 -12.1,1.4 1.2,-0.8 2.4,-1.4 4.2,-0.9 0.6,0.2 1.2,0.4 1.7,0.6 1.2,0.9 3,-2.1 5.1,-1.4 0.4,0 0.8,0.2 1.1,0.3 z"
   id="path548" />
				<path
   fill="#e7e7e7"
   d="m 115,257.8 c 0.5,-2.6 1.6,-3.8 3.3,-4 0.4,2.1 -1.9,3.7 -3.3,4 z"
   id="path550" />
				<path
   d="m 139.2,293.6 c 1,1.5 -3.4,0.5 -4.7,1.1 0.2,-1.1 1.3,-0.6 1.6,-1.4 1,0 2.2,0.5 3.1,0.3 z"
   id="path552" />
				<path
   fill="#a6a6a6"
   d="m 133.7,296 c -0.1,0.5 -0.4,0.7 -0.7,0.9 -1,0.8 -2.9,0.6 -4.1,-0.6 0.1,-0.5 -0.5,-0.5 -0.5,-0.9 1.7,0.1 3.7,0.7 5.3,0.6 z"
   id="path554" />
				<path
   fill="#cdcdcd"
   d="m 124.2,257 c 0.4,1.5 -1.6,3 -3.2,2.4 1.2,-0.7 2.4,-1.2 3.2,-2.4 z"
   id="path556" />
				<path
   fill="#a6a6a6"
   d="m 158.7,286.5 c 0.8,1.7 -2.1,3.7 -3,2.1 0.9,-0.8 2.3,-0.7 3,-2.1 z"
   id="path558" />
				<path
   fill="#cdcdcd"
   d="m 140.9,247.9 c -0.8,0.5 -2.1,0.1 -3.4,-0.4 1.1,-0.9 2.3,-0.2 3.4,0.4 z"
   id="path560" />
				<path
   fill="#e7e7e7"
   d="m 146.8,280.2 c 0.4,0.2 0.2,0.7 0,1.2 0,0.1 -0.1,0.2 -0.1,0.4 -0.9,0 -0.8,2 -2,1.3 0.5,-1.5 1.5,-1.9 2.1,-2.9 z"
   id="path562" />
				<path
   fill="#cdcdcd"
   d="m 112.2,279.1 c -1.9,0.2 -3,-2.1 -2.1,-4.2 1.6,0.9 1.8,2.5 2.1,4.2 z"
   id="path564" />
				<path
   fill="#5c5c5c"
   d="m 137.1,297.1 c 0.4,-0.1 0.9,-0.1 1.3,-0.2 -0.4,0.1 -0.8,0.2 -1.3,0.2 z"
   id="path566" />
				<path
   d="m 144.7,292.3 c 0.9,0.9 -3.3,1 -4,2.6 -0.9,-0.3 0.3,-1.2 0.5,-1.4 1.1,-0.6 1.7,-1.9 3.5,-1.2 z"
   id="path568" />
				<path
   fill="#a6a6a6"
   d="m 112.2,268.5 c 0.4,0.8 0.4,1.8 -0.2,3 -0.2,-1.5 -1.5,-2.6 -1.3,-4.3 0.6,0.1 0.5,0.5 0.9,0.7 0.4,0.2 0.3,0.5 0.6,0.6 z"
   id="path570" />
				<path
   fill="#e7e7e7"
   d="m 118.1,279.9 c 1.4,0.8 5.1,1.6 3.3,3 -0.7,-0.2 -0.8,0.8 -1.6,0.2 -0.1,-0.7 -1,-1.1 -1.4,-1.6 0.2,-0.7 -0.9,-0.7 -0.3,-1.6 z"
   id="path572" />
				<path
   fill="#cdcdcd"
   d="m 108.1,262.1 c 0.9,1.3 0.4,3.2 -0.4,4.6 -1.1,-0.9 -0.2,-2.8 0.4,-4.6 z"
   id="path574" />
				<path
   fill="#a6a6a6"
   d="m 132.2,279.6 c 1.6,0.6 3.4,1 3,2.6 -1.8,-1.3 -3.5,-1.1 -5.6,-0.7 0.1,-0.4 0.2,-0.7 0.4,-1.1 0.5,-0.5 1.1,-0.8 1.9,-0.9 0.1,0 0.2,0 0.3,0.1 z"
   id="path576" />
				<path
   fill="#e7e7e7"
   d="m 162.9,261.9 c 0,-0.1 -0.1,-0.2 -0.1,-0.3 0.1,0.1 0.1,0.2 0.1,0.3 z"
   id="path578" />
				<path
   fill="#e7e7e7"
   d="m 114.4,274.7 c -0.4,0.7 -0.8,0.6 -1.2,0 -0.1,0 -0.2,-0.1 -0.3,-0.1 -0.5,-0.9 -1.4,-3.2 0.2,-4.2 1,1.2 1.2,2.7 1.3,4.3 z"
   id="path580" />
				<path
   fill="#e7e7e7"
   d="m 159.5,274.7 c -0.1,1.6 -1.1,1.4 -2.2,0.8 -0.6,-1.4 1.5,-1.4 2.2,-2 -0.1,0.6 0,0.9 0,1.2 z"
   id="path582" />
				<path
   fill="#cdcdcd"
   d="m 110.9,261.9 c -0.2,1.2 0.6,1.9 0.6,2.9 0.7,-1.4 0,-2.1 -0.6,-2.9 z m 2.4,-3.5 c -1.2,0.3 -2.5,3.6 -1.1,4.3 0.2,-1.3 1.6,-3.3 1.1,-4.3 z m -0.5,10.7 c 1.2,-1.4 1.5,-4.6 -0.1,-5.5 -0.4,0.2 -1.5,2 -0.8,2.5 -0.1,0.2 -0.2,0.5 -0.2,0.7 -0.2,0.5 -0.1,0.8 0,1.2 -0.4,-0.2 -0.3,-0.6 -0.9,-0.7 -0.2,1.7 1.1,2.8 1.3,4.3 0.6,-1.3 0.7,-2.3 0.2,-3 0.2,0.1 0.2,0.4 0.5,0.5 z m 5.5,-15.2 c -1.6,0.2 -2.8,1.4 -3.3,4 1.4,-0.4 3.7,-2 3.3,-4 z m 1.3,-0.4 c 1.8,-1.4 5.8,-1.3 5.7,-4.3 -1.4,2.5 -5.1,0.2 -5.7,4.3 z m 26.4,23.3 c -0.2,-1.5 -1.7,-2.4 -2.7,-3.6 -0.7,1.9 -4.2,2.3 -3.8,5.4 0.8,0.3 1.6,0.5 2.4,0.8 0.2,-0.4 0.3,-1 0.7,-0.9 -0.1,0.2 -0.2,0.5 -0.2,0.7 1.1,-0.7 3.4,-2 3.6,-2.4 z m 10.2,-4.7 c 0.6,-2.2 0.7,-4.1 -1.5,-4.8 -1.6,0 -2.2,2.5 -1.6,3.7 0.5,0.1 0.7,0.4 0.9,0.7 -0.6,0.7 -1.2,1.5 -1.6,2.6 1.2,-0.6 2.1,-1.7 3.4,-2 -0.5,-0.2 -0.9,-0.3 -1.4,-0.5 0.1,-0.8 1.2,0.3 1.8,0.3 z m -0.3,-6.3 c 1,-0.2 1.3,-3.7 3.5,-1.2 0.2,-0.6 -0.3,-2.4 0.8,-2.4 0.4,0.4 0.7,0.8 0.7,1.4 -1.2,-0.8 -0.9,1.2 -1.4,1.9 -0.4,-0.8 -1.4,-0.3 -2.2,-0.4 -1,1.8 0.1,2.7 -0.2,4.2 0.2,0.1 0.5,0.2 0.7,0.2 -0.4,0.2 -1.5,2 -0.8,2.4 0.1,-1.7 2.2,-0.9 1.5,-2.2 0.4,0.1 0.7,0.2 1,0.4 0.2,-0.5 0.3,-0.9 0.5,-1.4 0.4,0.2 0,0.8 0.5,0.9 0.2,-1.2 1.5,-0.5 0.9,-1.6 0.1,0 0.2,0.1 0.3,0.1 0.2,-0.7 0.5,-1.4 0.7,-2.1 0.4,0.1 1,0.4 1.2,0 -0.5,-0.2 0,-0.9 0.1,-1.5 1.3,1.2 -0.2,3.8 1,5 -0.3,0 -0.5,0.2 -0.6,0.6 -0.3,-0.2 -0.2,-0.5 -0.6,-0.6 -0.4,0.2 -0.6,0.7 -0.8,1.3 0.5,0.2 1,0.4 1.2,0 0.2,0.2 0.3,0.4 0.1,0.8 -0.5,-0.1 -1.3,-0.6 -1.5,-0.1 -1,-0.8 -0.6,1 -1.6,0.2 -0.2,0.5 -0.3,0.9 -0.5,1.4 -0.4,0.4 -0.2,1.9 -0.9,1.6 -0.1,-0.3 -0.2,-0.7 0,-1.2 -0.8,0.6 -2.8,0.5 -2.2,2 -1,0.1 -1.3,1.7 -1.8,2.9 -2.3,-0.6 -4.1,-0.1 -4.8,2.7 -1.5,-0.2 -3.1,-0.8 -4,0.2 0.2,-0.5 0.4,-1 0,-1.2 -0.6,1 -1.6,1.4 -2.1,2.8 1.2,0.7 1.1,-1.3 2,-1.3 -0.1,1.2 -1,0.8 -1.1,2 -1.5,-0.4 -3.1,-0.7 -4.2,-0.2 0.2,-0.4 0.1,-0.6 -0.1,-0.8 -1.2,0.5 -2.1,1.7 -3.6,1.5 0.5,1.4 2.4,0.7 3,0.2 -0.4,0.5 -0.8,0.7 -1.2,1.2 -2.6,-1.4 -4.3,-0.9 -5.8,0 3.3,-2.1 -1.2,-1.1 -3.4,-1.5 0,0.4 0.6,0.5 0.5,0.9 -1.3,-0.6 -1.5,-1 -2.6,-0.5 0.1,-0.4 0.2,-0.7 0.4,-1.1 -2.2,-0.2 -3.3,-1.4 -5,-1.3 -0.4,0.8 0.9,0.7 0.7,1.4 -0.9,-0.8 -2,-1.2 -2.9,-0.6 1.8,-1.4 -1.8,-2.3 -3.3,-3 -0.6,0.9 0.5,0.9 0.2,1.6 -0.9,-2 -3,0.8 -3.6,-0.8 2.1,0.4 -0.6,-2.9 -1.3,-2 0.5,0.5 0.8,1.1 0.9,1.9 -2,-1.1 -0.7,-3.9 -1.2,-5.8 0.4,0.6 0.7,0.7 1.2,0 -0.1,-1.6 -0.3,-3.2 -1.3,-4.3 -1.7,1 -0.7,3.3 -0.2,4.2 -0.4,-0.4 -0.7,-0.8 -0.7,-1.4 -1.2,-0.6 -1.3,0.9 -2.5,0.3 -1.5,-2 0.1,-5.7 -0.8,-8.1 0.7,0.3 -0.1,1.2 0.7,1.4 -0.3,-0.9 0.9,-2.6 -0.1,-3.2 -0.2,0.5 -0.3,0.9 -0.5,1.4 0.1,-2.7 0.7,-5.6 1.3,-8.5 -1.5,1.4 -1.2,2.8 -2.1,5.1 -0.3,-0.1 -0.3,-0.4 -0.6,-0.6 -0.8,1.4 -0.7,3.8 -1.4,4.2 1.4,-8.2 6.8,-13.2 11.2,-17.2 2.9,-1.6 5.9,-3 8.9,-4.4 0.1,0 0.2,0.1 0.3,0.1 1.5,0 2.8,-0.3 3.9,-1 0.1,0 0.2,0.1 0.3,0.1 0.3,1 -0.7,1.3 -1.3,2.7 0.5,0.2 1.3,0.3 1.3,0.8 -1.2,2 -3.9,0.8 -5.1,2.6 5.2,-0.9 9.3,2.7 14.6,1.8 0.3,1.1 1.6,1.7 2.1,1.9 -2.3,0.7 -5.6,-0.8 -8.1,-0.4 0.1,-0.7 0.7,-0.6 0.8,-1.3 -4,-1.1 -6.5,0.6 -9.9,0.6 -0.7,3.6 -3.6,2.5 -5.3,4.1 0,0.1 -0.1,0.2 -0.1,0.3 -0.9,2.5 -3.1,2.4 -4.4,4 -0.3,0.8 -0.5,1.6 -0.8,2.4 0.4,1.4 1.3,2.5 0.9,4.2 -0.3,1.1 -1.2,2.6 0.2,2.8 0,0.1 -0.1,0.2 -0.1,0.3 1.9,1 -0.3,4 0.6,5.5 -0.2,-0.2 -0.6,-0.4 -1.1,-0.6 -0.4,0.6 -1,0.6 -1.3,1.5 2.6,-0.5 2.2,2.2 3.6,3.2 0.6,-1 0.1,-1.4 0.4,-2.2 1.2,-0.1 1.9,-1.3 3.4,-0.8 -0.1,0.4 0.1,0.5 0.1,0.8 -0.6,-1.1 -2.2,-0.5 -2.8,0.2 1.1,0.2 3.2,0.7 3.8,2.5 1.3,-0.2 -0.3,-1.3 -0.1,-2 0.5,1.5 1.5,0.9 2.6,0.5 -0.2,0.7 -1.1,0.1 -1.2,1.2 1.9,-0.2 4,0.3 4.8,2 0.6,-1.4 -1.1,-1.6 -1,-2.7 0.5,0.4 0.7,0.8 1.2,1.2 0.5,0.8 0.5,0.1 1.4,0.5 -0.1,0.4 -0.2,0.7 -0.4,1.1 2.1,-0.4 3.8,-0.6 5.6,0.7 0.4,-1.6 -1.5,-2 -3,-2.6 0.9,-0.6 0.5,-2.4 0.8,-3.6 1.2,-0.6 3.3,0.4 4.2,-0.9 0.3,-0.8 0.9,-0.8 1.1,-2 0.5,-0.7 1.6,-0.3 2,-1.3 -1.3,-0.9 -2.2,-2.6 -3.4,-2.7 0.8,-2.7 3,-2.6 4.9,-3 -2.4,-0.2 -3,-2.4 -4.8,-2 0.3,-0.4 0.7,-0.5 0.8,-1.3 -0.7,-0.3 -0.9,0.2 -1.3,0.3 0.9,-1 1.2,-3.1 2.8,-2.6 -0.9,2.9 2.9,3.4 2.7,6 -0.7,0.3 -1.4,0.7 -2.2,0.8 -0.2,0.7 -0.5,1.4 -0.7,2.1 1.2,1.2 2,2.5 3.5,3.5 0.4,-0.3 0.8,-0.8 0.9,-1.6 0,-0.1 0.1,-0.2 0.1,-0.4 0.5,0.1 0.6,-0.7 0.8,-1.3 1.1,0.4 2,0.5 2.7,0.1 -0.8,-2.2 -3.5,-3.5 -2.9,-6.4 1.4,0.2 3.1,1.1 3.6,-0.3 -3.1,-0.5 -4.1,-2.6 -3.3,-4.2 -0.3,-1.3 -1.4,0.6 -1.4,-0.5 0.9,-1.1 2.9,-0.1 4.3,-0.1 -0.5,2.1 1.2,2.3 1.6,3.3 -2,2.8 -1.7,5.8 -0.7,7.9 0.2,-0.7 0.5,-1.4 0.7,-2.1 1.2,0.3 2.2,0.1 3.6,0.8 -0.4,-2.4 -1.3,-4.6 -2.4,-6.7 0.8,0.3 1.6,0.6 2.5,0.8 0,1.2 0.7,3.5 2.1,3 0.6,0.3 1,0.4 1.3,0.6 z m -7.9,5.1 c -0.9,2 -0.4,3.3 -1.4,5.4 1.2,-0.1 1.7,-1.6 2.7,-2.2 -0.2,0.6 -1.6,1.7 -0.8,2.4 0.2,-1.8 1.9,-0.4 2.2,-2 -0.5,-0.2 -0.9,-0.3 -1.4,-0.5 0.6,-0.4 1.4,-0.4 2.6,0.5 0,-1.7 -0.8,-2.9 -1.3,-4.3 -0.9,0.1 -1.7,0.6 -2.6,0.7 z m 6.9,7.3 c 0.1,-0.7 0.7,-0.6 0.8,-1.3 -0.9,0.1 -2.3,-0.6 -2.6,0.7 0.6,0.2 1.2,0.4 1.8,0.6 z m -13.5,1.7 c -0.7,-1.1 -2.6,-0.9 -3.6,-0.8 0,-1.3 1.2,0.1 1.2,-1.2 -0.2,-0.1 -0.4,-0.2 -0.2,-0.5 -0.4,-0.1 -1,-0.4 -1.2,0 -0.4,0.4 -3.7,-0.1 -4.2,2.1 1.1,0.3 1.5,1 2.2,1.5 0.1,-0.2 0.2,-0.4 0.5,-0.2 -0.1,0.2 -0.2,0.5 -0.2,0.7 1.7,-0.7 3.6,-1.2 5.5,-1.6 z m -31.4,-7 c 0.1,-1.1 0.1,-2.2 -0.6,-2.9 -0.5,1.2 -0.1,2.1 0.6,2.9 z"
   id="path584" />
				<path
   fill="#a6a6a6"
   d="m 146,276.8 c -0.2,0.4 -2.5,1.7 -3.5,2.3 0.1,-0.2 0.2,-0.5 0.2,-0.7 0.1,-0.9 0.9,-0.5 0.9,-1.6 0.8,-0.1 1.5,-0.1 2.4,0 z"
   id="path586" />
				<path
   d="m 154.8,293.4 c -0.4,0.8 0.4,1 -0.2,1.9 -7.1,5.2 -15.2,8.6 -25.9,6.5 -1.9,-0.6 -3.7,-1.3 -5.6,-1.9 -3.3,-1.6 -5.3,-3.8 -8.3,-5.5 2.9,-0.3 7.6,4.8 11.3,3.4 1.5,1.4 4,2.4 5.5,1.1 -7.6,-2.6 -15.8,-3.2 -19.6,-8.9 0.6,0.2 1.1,0.5 1.3,0.8 0.1,0 0.2,0.1 0.3,0.1 0.3,1.7 1.8,1.4 3.6,2 0.8,0.7 1.4,1.4 2.9,1.8 0.9,0.1 1.8,0 2.9,0.6 0.3,0.6 1.4,0.9 2.3,1.2 1.4,0.4 2,-0.6 3.5,0 1.1,1.2 3.1,1.4 4.1,0.6 1.5,0.3 2.8,0.3 4.1,0.1 0.5,0 0.9,-0.1 1.3,-0.2 1.3,-0.2 2.5,-0.5 3.8,-0.7 1.3,0.5 2.1,0 2.7,-1 0.8,-0.3 1.7,-0.5 2.6,-0.7 0.4,0.1 0.7,0.2 1.1,0.3 0.6,-0.6 1.4,-0.7 1.8,-1.7 0.6,-0.4 1.2,-0.7 1.9,-0.9 0.1,0 0.2,0.1 0.4,0.1 0.1,0 0.2,0.1 0.3,0.1 -0.7,3 -6.1,2.8 -8.9,5.6 2.2,0.8 3.2,-1.1 4.6,-2 2.2,0.7 3.4,-0.6 4.3,-2.4 1,0.5 1.2,-0.4 1.9,-0.3 z m -11.5,4.3 c -1.9,-0.4 -3.3,0.5 -4.7,1.2 1.2,1 3.7,0.2 4.7,-1.2 z m -5.8,0.8 c -2,-0.3 -3.9,-0.4 -5.3,0.6 2.4,1 4.3,1 5.3,-0.6 z"
   id="path588" />
				<path
   fill="#5c5c5c"
   d="m 112.7,284.3 c -0.2,0.9 1,1.1 0.5,2.1 -2.8,-2.8 -6.5,-2.7 -6.9,-7.4 0.7,0.3 0.4,1.2 0.6,1.7 1.6,-0.3 2.3,0.8 2.4,2 1,0.4 1.6,-0.9 2.2,0.4 0.8,0.3 0.2,1.1 1.2,1.2 z"
   id="path590" />
				<path
   fill="#e7e7e7"
   d="m 117.5,248.1 c 2.7,-1.9 5.6,-3.5 8.9,-4.4 -3,1.5 -6,2.8 -8.9,4.4 z"
   id="path592" />
				<path
   d="m 125.8,293 c 0.3,1.3 -2,-0.3 -3.7,-0.5 0.2,-0.5 0.7,-0.1 0.9,-0.5 0.9,0.3 1.8,0.7 2.8,1 z"
   id="path594" />
				<path
   fill="#5c5c5c"
   d="m 147.6,287.1 c 0.2,0.1 0.5,0.2 0.7,0.2 -1.3,1.3 -3.4,1 -4.4,2.8 -1.6,-1.2 1.5,-2.3 1.9,-3.3 0.5,0.2 1,0.4 1.2,0 0.1,0.1 0.4,0.2 0.6,0.3 z"
   id="path596" />
				<path
   fill="#e7e7e7"
   d="m 139,278 c 0.1,1.3 -1.2,-0.1 -1.2,1.2 -0.4,1 -1.3,0.9 -1.8,1.7 -0.3,-0.2 -0.4,0 -0.5,0.2 -0.7,-0.5 -1.1,-1.2 -2.2,-1.5 0.5,-2.2 3.8,-1.7 4.2,-2.1 0.2,-0.4 0.7,-0.1 1.2,0 -0.1,0.3 0.1,0.4 0.3,0.5 z"
   id="path598" />
				<path
   fill="#a6a6a6"
   d="m 127.2,295.8 c -0.3,0.7 -1.4,-0.1 -1.7,0.6 -0.9,-0.3 -2,-0.5 -2.3,-1.2 0.1,-0.7 -1.5,-0.6 -1,-1.5 1.2,0 3.7,1.1 5,2.1 z"
   id="path600" />
				<path
   fill="#e7e7e7"
   d="m 121.1,259.5 c 1.5,0.5 3.6,-1 3.2,-2.4 -0.9,1.1 -2.1,1.6 -3.2,2.4 z m -2.5,5 c 1.2,1.6 0.1,7.6 1.7,1.8 -0.6,-0.6 -0.6,-1.5 -1.7,-1.8 z m 6,-6.2 c 1.9,2.4 4.9,0.7 6.8,-0.4 -1.2,-2.4 -6.1,-3.1 -6.8,0.4 z m 7.2,-3 c -1,-1.1 -2.3,0 -1,-1.5 -2.2,-0.4 -3,1.7 -4.9,1.8 2.5,-0.2 3.9,-0.1 5.9,-0.3 z m -6,-2.8 c 1.7,0.4 3.2,0.7 4.3,-0.1 -1.3,-1.2 -3.4,-1 -4.3,0.1 z m 9.7,-8 c -1.6,-0.7 -2,-2 -3.8,-1.3 1,0.6 0.3,1.4 1,1.5 -0.7,0.2 -0.9,1.4 -1.4,1.9 0.8,0.3 1.7,0.6 2.2,0.4 -0.9,0.4 -0.3,0.9 -0.6,1.7 1.6,0.6 2.5,-0.4 3.3,-1.6 -1,-0.3 -1.8,-0.7 -1.9,-1.4 0.5,-0.2 0.9,-0.6 1.2,-1.2 z m 2.3,1.1 c -1.3,-0.8 -2.4,-1.3 -2.9,0.6 1.4,0.6 2.5,0.7 2.9,-0.6 z m 0.9,4.2 c -1.5,-0.5 -2,-1.7 -3.4,-1.5 -0.6,1.3 2.8,2.6 3.4,1.5 z m -8.3,17.9 c -0.3,-1.9 1.2,-2.8 1.9,-4.4 -2.5,-3 -4.1,-1.9 -7.6,-1.8 1.3,1.2 -0.8,3.6 -1.8,4.1 1.1,0.6 2,0.5 2.9,0.6 0.2,0.8 -0.7,1.6 0.3,2.5 0.8,-1.6 3.3,-2 4.3,-1 z m 6.9,-6.7 c 0.1,-0.4 0.2,-0.7 0.4,-1 -0.3,-1.4 -3.8,-3.2 -4.7,-1.2 0.2,1.8 2.6,2 4.3,2.2 z m 3.6,-13.1 c -1.1,-0.6 -2.3,-1.3 -3.4,-0.4 1.4,0.5 2.6,0.8 3.4,0.4 z m -7.7,5.5 c 2.8,1.6 4.3,1.5 6.8,0.7 -2,-0.5 -4.7,-1.5 -6.8,-0.7 z m -1.4,19.4 c 1,-1.9 2.8,-2.3 4.4,-2.8 -1.1,-1.3 -3.1,-0.2 -4.1,0.6 0.2,-0.5 0.3,-0.9 0.5,-1.4 -3.6,-1.6 -8.2,1.2 -5.8,4.7 0.5,0.2 0.8,0.1 1.2,0 -0.2,0.4 -0.6,0.3 -0.7,0.9 -0.9,-1 -0.8,-2.5 -2.9,-2.9 -1.1,-0.1 -1.9,0.6 -2.7,1.1 -0.4,-0.4 -0.7,-0.8 -0.7,-1.4 0.5,0.3 0.4,0.8 0.8,1.1 1,-0.7 1.9,-1.7 3.7,-0.7 -0.9,-2 -0.4,-6.1 -4.2,-4.9 0.8,-1 -0.3,-1 -0.2,-1.6 0.7,-0.6 1.7,-1 2.5,-1.5 0.9,-1.8 0.6,-3 0.7,-4.4 -1.5,0.5 -3.3,0.5 -4.4,1.6 -0.5,-0.5 -0.1,-1.5 -0.9,-1.9 0.4,2.1 -1.8,4.1 -1.8,5.2 0.9,-0.4 1.5,-1.3 2.2,-2 -0.2,0.6 -0.4,1.2 -0.6,1.8 2.2,0.9 2,3.1 0.8,5.7 0.3,0.5 1.2,0.8 1.1,1.5 -0.6,-0.4 -0.6,-1 -1.5,-1.3 -0.7,0.2 -1.6,0.3 -2,1.3 3.3,0.3 2.7,2.5 3.7,4 0.7,-1 0.6,-1.8 1.1,-2 3.1,-0.8 4.8,1.2 5.4,3.8 1,-2.2 3.4,-2.5 5.4,-0.9 0.6,-1.6 -0.8,-2.3 -2.6,-2.8 1.1,0 1.1,-2.1 2,-2.4 -0.2,0.3 -1.2,1.4 -0.4,1.6 z m 3.9,-15 c 1.7,-0.2 4.5,1.5 6.2,1.3 0,-2.1 -2,-3.3 -4.4,-4.2 -0.4,1.5 -1.6,1.1 -1.8,2.9 z m 0.4,11.4 c 2.2,-1.5 2.8,-4.4 -0.1,-5.5 -0.2,1.1 -2.7,0.7 -3,3.3 0.6,0.9 2.1,1.5 3.1,2.2 z M 148,254.5 c 0.5,0.9 2.9,2.5 3.6,0.8 -1.1,-0.1 -2.8,-1.4 -3.6,-0.8 z m -0.9,2.8 c -1.7,-0.2 -3.8,-1.8 -4.5,-1.5 0.6,1.4 3.1,2.6 4.5,1.5 z m 3.8,-6.5 c 0.1,-1.2 -3.9,-2.5 -4.5,-1.5 0.5,0.5 0.8,1.2 0.9,1.9 1,-0.5 3.2,1.4 3.6,-0.4 z m -7.8,2.1 c -0.5,2.7 3,2.7 5.1,3.3 0.1,-1.5 -1.2,-2.3 -2.4,-3.2 0.2,-0.5 1,0 1.1,-0.8 -1.7,-1.5 -2.9,-1.4 -5.5,-2.2 -0.2,1.5 1.2,2.3 2.9,2.9 -0.2,0.4 -0.7,0.2 -1.2,0 z m 8.3,0.8 c 0.6,-1 -1.5,-2.1 -2.2,-1.5 1,0.4 1.3,1.1 2.2,1.5 z m -2.7,5.7 c 0.4,0.6 1.3,2.5 2.6,1.6 -0.8,-0.3 -2.4,-1.8 -2.6,-1.6 z m 4.5,0.7 c 0,-1.3 -0.7,-3.7 -2.4,-3.2 -0.2,1.5 1,3.5 2.4,3.2 z m 4,0.6 c -0.2,1.3 -0.1,2.6 1.7,2.9 0.1,-1.2 -0.2,-2.3 -1.7,-2.9 z m 2.7,-1 c 0.3,0.6 0.1,2.8 1.3,2 -0.1,-0.6 -0.6,-2.6 -1.3,-2 z M 149,247.1 c 7.5,2.5 11.6,8.4 13.8,14.5 -0.1,-0.1 -0.2,-0.2 -0.3,-0.3 -0.3,0.5 -0.4,-0.2 -1.1,-0.4 -0.3,0.6 0.1,0.9 -0.1,1.5 0.7,0.3 1.6,-0.1 1.6,-0.6 0.3,0.9 0.6,1.7 0.8,2.6 -0.2,0.6 -0.6,1.3 -0.1,1.5 -0.2,0.4 -0.7,0.1 -1.2,0 -0.2,0.7 -0.5,1.4 -0.7,2.1 -0.1,0 -0.2,-0.1 -0.3,-0.1 -0.3,-0.1 -0.7,-0.2 -1,-0.4 -0.1,0.3 -0.2,0.7 -0.4,1 -0.2,0.5 -0.3,0.9 -0.5,1.4 -0.4,-0.1 -0.7,-0.2 -1,-0.4 -0.2,-0.1 -0.5,-0.2 -0.7,-0.2 -0.2,-0.1 -0.5,-0.2 -0.7,-0.2 0.3,-1.5 -0.7,-2.3 0.2,-4.2 0.8,0 1.9,-0.4 2.2,0.4 0.5,-0.6 0.2,-2.6 1.4,-1.9 0,-0.6 -0.3,-1 -0.7,-1.4 -1.1,0.1 -0.6,1.8 -0.8,2.4 -2.2,-2.5 -2.5,0.9 -3.5,1.2 0,-0.1 0.1,-0.2 0.1,-0.4 -0.8,-0.8 -1.5,-1.6 -2.3,-2.3 -0.6,1 0.7,1 0.1,2 0.3,0.1 0.7,0.2 1.1,0.4 -1.4,0.5 -2.1,-1.8 -2.1,-3 -0.8,-0.3 -1.6,-0.5 -2.5,-0.8 1.2,2 2.1,4.2 2.4,6.7 -1.4,-0.7 -2.4,-0.5 -3.6,-0.8 -0.2,0.7 -0.5,1.4 -0.7,2.1 -0.9,-2.2 -1.3,-5.1 0.7,-7.9 -0.4,-1 -2.2,-1.2 -1.6,-3.3 -1.5,0 -3.4,-1 -4.3,0.1 0,1.1 1.1,-0.8 1.4,0.5 -0.9,1.6 0.2,3.7 3.3,4.2 -0.5,1.5 -2.3,0.5 -3.6,0.3 -0.6,2.9 2.1,4.2 2.9,6.4 -0.7,0.4 -1.6,0.3 -2.7,-0.1 -0.2,0.6 -0.3,1.4 -0.8,1.3 0.4,-0.8 0.4,-1.3 -0.2,-1.6 -0.2,0.9 -1.2,2.7 0.1,2 -0.2,0.8 -0.5,1.3 -0.9,1.6 -1.5,-1 -2.3,-2.3 -3.5,-3.5 0.2,-0.7 0.5,-1.4 0.7,-2.1 0.8,-0.1 1.5,-0.5 2.2,-0.8 0.2,-2.5 -3.6,-3.1 -2.7,-6 -1.6,-0.5 -1.9,1.6 -2.8,2.6 0.4,-0.1 0.6,-0.7 1.3,-0.3 -0.1,0.8 -0.5,0.8 -0.8,1.3 1.8,-0.4 2.4,1.8 4.8,2 -1.9,0.4 -4.1,0.3 -4.9,3 1.1,0.1 2.1,1.8 3.4,2.7 -0.4,0.9 -1.4,0.6 -2,1.3 -0.4,-2.4 -2.9,0.5 -4.1,1.7 0.4,1.1 2.3,0.4 3,0.2 -0.9,1.3 -3,0.3 -4.2,0.9 -0.3,1.2 0.1,3 -0.8,3.6 -0.1,0 -0.2,-0.1 -0.3,-0.1 0.2,-0.5 0.3,-0.9 0.5,-1.4 -1.5,0.1 -3.9,0.1 -3.7,1.9 -0.5,-0.4 -0.7,-0.8 -1.2,-1.2 -0.9,-0.3 -2,-0.8 -2.6,-0.5 2.7,-1.5 -1.6,-2.3 -3.5,-2.3 0,0.5 0.4,0.8 0.4,1.3 -0.1,0 -0.2,-0.1 -0.4,-0.1 0,-0.3 -0.2,-0.5 -0.1,-0.8 -1.5,-0.5 -2.2,0.7 -3.4,0.8 -1.2,-0.2 -0.6,-1.3 -1.4,-1.6 -0.1,-0.1 -0.1,-0.2 -0.2,-0.3 -0.9,-1.5 1.3,-4.5 -0.6,-5.5 0,-0.1 0.1,-0.2 0.1,-0.3 0.4,0.3 0.3,0.8 0.8,1 1.9,-0.1 1.2,-7.1 -0.9,-4.2 0,0.1 -0.1,0.2 -0.1,0.3 0.4,-1.7 -0.6,-2.8 -0.9,-4.2 0.4,0.3 0.3,0.8 0.8,1.1 0.8,-1.2 2.1,-3.1 1.4,-4.2 -0.5,0.2 -0.9,0.5 -1.4,0.7 1.4,-1.5 3.6,-1.4 4.4,-4 -0.2,0.6 -0.4,1.2 -0.6,1.8 1.8,-0.1 3.3,-0.8 4.3,-2.4 -0.8,-1 -2.5,0.1 -3.6,0.3 1.6,-1.6 4.6,-0.5 5.3,-4.1 3.4,0.1 6,-1.7 9.9,-0.6 -0.2,0.6 -0.7,0.6 -0.8,1.3 2.4,-0.4 5.8,1.1 8.1,0.4 -0.5,-0.2 -1.8,-0.8 -2.1,-1.9 -5.3,0.9 -9.4,-2.6 -14.6,-1.8 1.2,-1.8 4,-0.6 5.1,-2.6 0,-0.5 -0.8,-0.6 -1.3,-0.8 0.6,-1.4 1.6,-1.7 1.3,-2.7 3.3,-0.9 7.3,-0.2 11.4,0.7 -0.3,1.3 -2.2,-0.6 -2.8,0.2 -0.4,1.2 1.4,1.3 1.6,2.1 -0.3,0.4 -0.8,0.3 -1.1,0.8 0.8,1 2,2.3 3.6,2 -0.2,0.3 -0.5,0.2 -0.6,0.6 1,0.1 2.6,1.4 3.3,0.7 -0.3,-0.6 -1.4,-0.9 -2.3,-1.2 0.2,-0.8 1.3,0.3 1.9,0.2 -1.4,-1.3 -1.5,-2.9 -4.1,-2.9 0.1,-0.6 0.5,-0.6 0.9,-0.5 0.8,-1 -1,-0.7 -0.2,-1.6 2.9,1.2 3.2,6.1 6.4,3.1 z m -32.3,26.5 c -0.6,1.6 0.7,3.4 2.1,3 0.2,-1.4 -1,-2.2 -2.1,-3 z m 34,-24.8 c 0,0.6 1.6,2.8 2.3,1.2 -0.1,-0.5 -1.5,-1.9 -2.3,-1.2 z m 4.2,10.8 c 0.3,-0.9 -1.6,-2.1 -1.7,-1.8 0.8,0.5 0.3,1.6 1.7,1.8 z"
   id="path602" />
				<path
   fill="#a6a6a6"
   d="m 110.4,256.6 c -0.6,2.9 -1.2,5.9 -1.3,8.5 0,0.1 -0.1,0.2 -0.1,0.3 0.9,2.4 -0.7,6 0.8,8.1 1.2,0.6 1.3,-0.9 2.5,-0.3 0,0.6 0.3,1 0.7,1.4 0.1,0 0.2,0.1 0.3,0.1 0.5,1.9 -0.8,4.7 1.2,5.8 0.1,0 0.2,0.1 0.3,0.1 0.7,1.6 2.7,-1.2 3.6,0.8 0.4,0.6 1.3,0.9 1.4,1.6 0.9,0.6 0.9,-0.5 1.6,-0.2 0.9,-0.6 2,-0.2 2.9,0.6 0.8,1.5 2.8,1.6 4,0.9 1.1,-0.6 1.3,-0.2 2.6,0.5 0.5,1 2.2,1.1 2.9,0.6 1.5,-0.9 3.2,-1.4 5.8,0 0.4,-0.5 0.8,-0.7 1.2,-1.2 0.3,-0.2 0.6,-0.4 0.7,-0.9 1.1,-0.5 2.7,-0.1 4.2,0.2 0.1,-1.2 0.9,-0.8 1.1,-2 0,-0.1 0.1,-0.2 0.1,-0.4 0.9,-1 2.5,-0.4 4,-0.2 0.6,-2.8 2.4,-3.3 4.8,-2.7 0.4,-1.3 0.7,-2.8 1.8,-2.9 1.2,0.6 2.1,0.8 2.2,-0.8 0.7,0.3 0.6,-1.2 0.9,-1.6 0.6,0.2 1.2,0.4 1.7,0.6 0.6,-1 0.1,-1.4 0.4,-2.2 0.3,-0.4 1,0 1.5,0.1 0.2,-0.4 0.1,-0.6 -0.1,-0.8 0.1,-0.2 0.2,-0.5 0.2,-0.7 0.1,-0.4 0.3,-0.6 0.6,-0.6 0,0.8 0.5,1.3 0,2.3 -1.1,0.7 -0.7,2.3 0.2,2.8 -0.3,2.3 -0.8,4.7 -1.7,7.2 -0.2,0.6 -0.4,1.2 -0.6,1.8 -1.2,-0.2 0.5,-1.8 -0.9,-1.9 -0.8,0.3 -2.3,2.5 -1.1,3.2 0.2,-0.6 0.6,-0.8 1.1,-0.8 -0.4,0.9 -0.7,1.8 0.3,1.3 0,0.1 -0.1,0.2 -0.1,0.4 -0.6,0.9 -0.9,2.4 -1.8,2.9 0.2,-0.7 0.5,-1.4 0.7,-2.1 0.3,-0.7 -1,-0.3 -1.2,0 -0.8,-0.2 0.3,-1.3 0.2,-1.9 -0.4,-0.1 -1,-0.4 -1.2,0 -0.1,0 -0.2,-0.1 -0.3,-0.1 -1.4,0.2 -1.8,2.3 -2.9,2.9 -1.1,-0.1 -2.2,-0.1 -2.7,1 -0.8,0.3 -1.3,1.2 -2.1,1.6 -1.7,-0.5 -2.7,0.4 -3.6,1.5 -0.7,0.4 -1.6,0.6 -2.6,0.7 -1.7,-0.7 -2.4,0.6 -3.5,1.2 -0.7,-0.1 -1,0.8 -2,0.1 -0.8,0.2 -2.1,-0.3 -3,-0.2 -1.2,0 -1.7,1.3 -3,0.9 -1.4,-0.5 -2.8,-1 -4,-0.9 -1.4,0.2 -1.9,0.8 -3.4,-0.4 -0.9,-0.3 -1.9,-0.6 -2.8,-0.9 -6.3,-0.8 -12.2,-5.7 -15.5,-8.3 -1.9,-3.9 -2.5,-8.5 -2.1,-13.5 0.7,-1.2 1.3,-2.1 0.2,-3 0.2,-0.6 0.4,-1.2 0.6,-1.7 0.7,-0.4 0.6,-2.8 1.4,-4.2 0.3,0.2 0.2,0.5 0.6,0.6 1.1,-2.3 0.7,-3.8 2.3,-5.2 z m 53,21.8 c 0.4,-0.9 0.4,-1.5 -0.6,-1.8 -0.2,0.5 -0.3,0.9 -0.5,1.4 0.4,0.1 0.7,0.3 1.1,0.4 z m 0.2,-1.9 c 0.3,-0.9 0.9,-2 0,-2.3 -1,1.8 -3.8,2.7 -3.9,4.5 1.8,0.9 2.5,-1.6 2.5,-2.7 0.5,0.2 1,0.4 1.4,0.5 z m -4.3,4.8 c 0.7,-0.4 1.5,-0.4 1.8,-1.7 -0.5,-0.2 -0.9,-0.3 -1.4,-0.5 -0.1,0.6 -1.2,1.9 -0.4,2.2 z m -1.8,0.6 c 0.8,-0.8 1.5,-1.7 1.9,-3.3 -2,-0.7 -2.6,1.5 -3.9,2.2 0,-0.5 -0.2,-0.9 -0.8,-1 -0.8,2.3 -2.9,2 -4,3.7 0,-0.5 -0.1,-0.9 -0.4,-1.3 -1.1,0.3 -2,1 -2.5,2.7 -2.6,1.3 -5.6,0.5 -7.8,3.6 0.3,0.1 0.7,0.2 1,0.3 -2.1,-0.7 -3.9,2.3 -5.1,1.4 1.2,-0.5 2.6,-0.7 3.4,-2 -1.5,-0.8 -4.5,-0.3 -6.3,0.2 0.1,0.6 1.3,0.5 1.2,1.2 -1.8,-0.4 -3,0.2 -4.2,0.9 3.2,1.4 12.5,0.3 12.1,-1.4 1.5,-0.2 2.3,-2 3.6,-2.7 0.3,0.1 0.7,0.2 1,0.4 -0.2,0.4 -0.7,0.2 -1.2,0 -0.4,1 -3.4,2.1 -1.9,3.3 1.1,-1.8 3.2,-1.5 4.4,-2.8 -0.2,-0.1 -0.5,-0.2 -0.7,-0.2 1,-0.1 1.6,-1.1 2.5,-1.5 -0.5,1.2 -1.9,1.7 -0.9,2.8 0.7,-2.4 2.9,-2.1 4,-3.7 -0.1,0 -0.2,-0.1 -0.4,-0.1 0.9,-0.1 1.3,-1.2 2.1,-1.6 0,1.1 -0.8,0.7 -0.9,1.6 1.5,-0.6 3.9,-1.4 3.8,-2.7 z m -7.7,7.9 c 1.1,0 3.1,-1.1 2.7,-2.2 -0.3,1.6 -3.2,0.9 -2.7,2.2 z M 138,285.4 c -1.5,-0.7 -4,-0.3 -3.7,0.7 0.8,-1.1 2.7,-0.1 3.7,-0.7 z m -8.6,6.1 c 0.8,-1.2 -0.9,-1.1 -0.9,-1.9 1.8,0.7 3.1,0.4 3.9,-1 -1.7,0 -4.4,-1.8 -5.6,-0.7 -0.2,0.9 1.4,0.9 1.4,1.6 -1.3,-0.8 -2,-1.2 -3.3,-0.7 0.3,-0.5 0.8,-0.4 1.1,-0.8 -1.8,-1 -3.6,-2.8 -5.6,-1.9 0.3,0.5 0.9,0.9 1,1.5 -0.9,-0.9 -2.6,-1.3 -3.2,0.1 2.6,0.2 3,1.3 5,2.5 0.7,-1 -0.7,-1 -0.6,-1.8 0.8,0.4 1.4,0.4 1.9,0.2 -0.1,0.4 -0.4,0.3 -0.6,0.6 1,1.1 4.2,0.8 5.5,2.3 z m -12.6,-5.4 c 0.6,0.9 2.5,1 2.8,-0.2 -1.6,-0.7 -2.5,-1.7 -3.8,-2.5 -0.8,1.4 0.5,1.7 0.7,2.6 -1.1,-0.8 -1.9,-2 -2.9,-0.6 1.5,0.9 2.9,1.9 4.1,2.9 0.6,-1.2 -1.2,-1.2 -0.9,-2.2 z m -3.6,0.3 c 0.5,-1 -0.6,-1.2 -0.5,-2.1 0.4,0.1 1,0.4 1.2,0 -0.7,-0.8 -1.1,-1.8 -2.3,-2.3 -0.2,0.5 -0.1,0.8 0,1.2 -0.6,-1.2 -1.2,0.1 -2.2,-0.4 -0.1,-1.2 -0.9,-2.3 -2.4,-2 -0.2,-0.6 0.1,-1.4 -0.6,-1.7 0.2,4.6 4,4.5 6.8,7.3 z m -3.1,-11.6 c -1,2.1 0.2,4.4 2.1,4.2 -0.3,-1.6 -0.5,-3.2 -2.1,-4.2 z m -2.8,0.3 c 0.5,0.7 0.4,1.8 1.2,2.3 0,-0.8 -0.4,-2.9 -1.2,-2.3 z m 0.6,-2.9 c 0.4,-1.8 0.7,-3.5 -0.5,-4.4 -0.8,1.9 -0.6,3.3 0.5,4.4 z m -0.1,-5.5 c 0.8,-1.3 1.2,-3.3 0.4,-4.6 -0.7,1.8 -1.6,3.7 -0.4,4.6 z"
   id="path604" />
				<path
   d="m 153,288.5 c 0.5,-1.2 1.6,-1.2 2.7,-1 -0.6,0.5 -3.6,3.1 -2.7,1 z"
   id="path606" />
				<path
   fill="#cdcdcd"
   d="m 107.4,267.7 c 1.2,1 0.9,2.7 0.5,4.4 -1.1,-1 -1.3,-2.4 -0.5,-4.4 z"
   id="path608" />
				<path
   fill="#cdcdcd"
   d="m 123.1,299.9 c 1.9,0.6 3.7,1.3 5.6,1.9 -1.3,0.2 -4.8,-1 -5.6,-1.9 z"
   id="path610" />
				<path
   fill="#cdcdcd"
   d="m 164.8,271.8 c 0.4,0.8 -0.2,2 0.2,2.8 -0.9,-0.5 -1.3,-2.1 -0.2,-2.8 z"
   id="path612" />
				<path
   fill="#a6a6a6"
   d="m 122.3,277.8 c -0.2,0.6 1.4,1.8 0.1,2 -0.6,-1.7 -2.8,-2.3 -3.8,-2.5 0.6,-0.7 2.2,-1.3 2.8,-0.2 0.1,0 0.2,0.1 0.4,0.1 0.3,0.1 0.2,0.4 0.5,0.6 z"
   id="path614" />
				<path
   fill="#a6a6a6"
   d="m 158.5,269.7 c 0.6,1.3 -1.5,0.5 -1.5,2.2 -0.7,-0.5 0.4,-2.3 0.8,-2.4 0.2,0.1 0.5,0.1 0.7,0.2 z"
   id="path616" />
				<path
   fill="#cdcdcd"
   d="m 125.9,288 c -0.3,0.4 -0.8,0.3 -1.1,0.8 -0.1,0 -0.2,-0.1 -0.3,-0.1 -0.5,0.2 -1.1,0.1 -1.9,-0.2 -0.8,-0.1 -0.8,-0.5 -1.3,-0.8 -0.2,-0.6 -0.7,-1 -1,-1.5 2,-1 3.8,0.7 5.6,1.8 z"
   id="path618" />
				<path
   fill="#5c5c5c"
   d="m 162.8,283.6 c -0.2,0.6 -0.4,1.2 -0.6,1.7 -1,0.5 -0.7,-0.3 -0.3,-1.3 -0.5,0 -0.9,0.2 -1.1,0.8 -1.2,-0.7 0.3,-2.9 1.1,-3.2 1.3,0.2 -0.3,1.8 0.9,2 z"
   id="path620" />
				<path
   fill="#cdcdcd"
   d="m 150.7,257 c 1.7,-0.6 2.5,1.9 2.4,3.2 -1.3,0.2 -2.5,-1.8 -2.4,-3.2 z"
   id="path622" />
				<path
   fill="#cdcdcd"
   d="m 162.9,261.9 c 0,0.5 -0.9,0.9 -1.6,0.6 0.3,-0.6 -0.2,-0.9 0.1,-1.5 0.6,0.1 0.7,0.9 1.1,0.4 0.1,0.1 0.3,0.2 0.3,0.3 0,0 0,0 0,0 0.1,0 0.1,0.1 0.1,0.2 z"
   id="path624" />
				<path
   fill="#e7e7e7"
   d="m 164.2,270.1 c -0.1,0.2 -0.2,0.5 -0.2,0.7 -0.2,0.4 -0.7,0.2 -1.2,0 0.2,-0.6 0.4,-1.1 0.8,-1.3 0.4,0.1 0.4,0.4 0.6,0.6 z"
   id="path626" />
				<path
   fill="#a6a6a6"
   d="m 113.3,290.7 c -0.6,-1.7 2.8,0.5 2.2,1.5 -0.8,-0.4 -1.3,-0.9 -1.9,-1.4 -0.1,0 -0.2,0 -0.3,-0.1 z"
   id="path628" />
				<path
   fill="#e7e7e7"
   d="m 163.4,281.9 c 0.4,0.7 -0.5,3.6 -1.3,3.9 0,-0.1 0.1,-0.2 0.1,-0.4 0.2,-0.6 0.4,-1.2 0.6,-1.7 0.2,-0.7 0.4,-1.2 0.6,-1.8 z"
   id="path630" />
				<path
   fill="#5c5c5c"
   d="m 152.7,284.5 c 0.1,0 0.2,0.1 0.4,0.1 -1.1,1.7 -3.2,1.3 -4,3.7 -1,-1.1 0.4,-1.6 0.9,-2.8 0.6,-0.9 1.5,-1.4 2.7,-1 z"
   id="path632" />
				<path
   fill="#e7e7e7"
   d="m 112.2,262.7 c -1.4,-0.7 -0.1,-4 1.1,-4.3 0.5,1 -0.9,3 -1.1,4.3 z"
   id="path634" />
				<path
   fill="#cdcdcd"
   d="m 120.4,266.2 c -1.7,5.8 -0.6,-0.2 -1.7,-1.8 1,0.4 1,1.3 1.7,1.8 z"
   id="path636" />
				<path
   fill="#5c5c5c"
   d="m 161,279.5 c -0.2,1.3 -1.1,1.3 -1.8,1.7 -0.8,-0.3 0.4,-1.5 0.4,-2.2 0.5,0.2 1,0.4 1.4,0.5 z"
   id="path638" />
				<path
   fill="#5c5c5c"
   d="m 132.3,299.1 c 1.4,-1 3.3,-0.9 5.3,-0.6 -1.1,1.6 -3,1.6 -5.3,0.6 z"
   id="path640" />
				<path
   fill="#cdcdcd"
   d="m 159.4,278.6 c -0.4,1.6 -1.1,2.5 -1.9,3.3 -1.2,-0.4 -2,0.2 -2.7,1 -0.8,0.4 -1.2,1.6 -2.1,1.6 -1.3,-0.4 -2.1,0 -2.7,1 -0.9,0.4 -1.4,1.4 -2.5,1.5 -0.2,-0.1 -0.5,-0.2 -0.7,-0.2 -0.3,-0.1 -0.7,-0.2 -1,-0.4 -1.3,0.6 -2.1,2.5 -3.6,2.7 -0.4,-0.1 -0.7,-0.2 -1.1,-0.4 -0.3,-0.1 -0.7,-0.2 -1,-0.3 2.2,-3 5.2,-2.3 7.8,-3.6 0.5,-1.6 1.3,-2.4 2.5,-2.7 0.2,0.4 0.3,0.8 0.4,1.3 1.1,-1.7 3.2,-1.5 4,-3.7 0.6,0.2 0.8,0.6 0.8,1 1.3,-0.6 1.8,-2.8 3.8,-2.1 z"
   id="path642" />
				<path
   fill="#e7e7e7"
   d="m 109.6,266.9 c -0.8,-0.2 0,-1.1 -0.7,-1.4 0,-0.1 0.1,-0.2 0.1,-0.3 0.2,-0.5 0.3,-0.9 0.5,-1.4 1,0.5 -0.1,2.2 0.1,3.1 z"
   id="path644" />
				<path
   fill="#a6a6a6"
   d="m 154.3,271.8 c 0.5,0.2 0.9,0.3 1.4,0.5 -1.3,0.3 -2.2,1.4 -3.4,2 0.4,-1.1 1,-1.9 1.6,-2.6 0.2,0 0.3,0.1 0.4,0.1 z"
   id="path646" />
				<path
   d="m 129.1,293.3 c 1.1,-0.1 2.5,0.4 4,0.9 -1.3,0.7 -3.5,-0.4 -5,-0.1 0.2,-0.4 0.8,-0.3 1,-0.8 z"
   id="path648" />
				<path
   fill="#cdcdcd"
   d="m 113.9,284.3 c -0.2,0.4 -0.7,0.1 -1.2,0 -1,-0.1 -0.5,-0.9 -1.2,-1.2 -0.1,-0.3 -0.2,-0.7 0,-1.2 1.2,0.6 1.7,1.6 2.4,2.4 z"
   id="path650" />
				<path
   fill="#cdcdcd"
   d="m 132.1,270.6 c 1,-0.7 3,-1.9 4.1,-0.6 -1.7,0.5 -3.4,0.9 -4.4,2.8 -0.8,-0.2 0.3,-1.3 0.2,-1.9 0.1,-0.1 0.1,-0.2 0.1,-0.3 z"
   id="path652" />
				<path
   fill="#5c5c5c"
   d="m 162.8,276.6 c 1,0.2 1,0.9 0.6,1.8 -0.3,-0.1 -0.7,-0.2 -1,-0.3 0.1,-0.5 0.2,-1 0.4,-1.5 z"
   id="path654" />
				<path
   fill="#e7e7e7"
   d="m 109.4,269.9 c 0.7,0.7 0.7,1.8 0.6,2.9 -0.7,-0.7 -1.1,-1.6 -0.6,-2.9 z"
   id="path656" />
				<path
   fill="#a6a6a6"
   d="m 145.7,293.8 c -0.2,0.6 -0.4,1.1 -0.8,1.3 -0.6,1 -1.4,1.5 -2.7,1 -2.1,-1 2.7,-1.5 3.5,-2.3 z"
   id="path658" />
				<path
   fill="#e7e7e7"
   d="m 130.6,242.8 c -1.1,0.7 -2.4,1 -3.9,1 1.1,-0.7 2.6,-0.6 3.9,-1 z"
   id="path660" />
				<path
   fill="#cdcdcd"
   d="m 105.6,267.1 c 1,1 0.5,1.8 -0.2,3 -0.5,-0.6 0.5,-2.1 0.2,-3 z"
   id="path662" />
				<path
   fill="#e7e7e7"
   d="m 128.6,283.4 c -0.1,0.4 -0.2,0.7 -0.4,1.1 -1.2,0.7 -3.2,0.5 -4,-0.9 0.2,-0.7 -1.1,-0.6 -0.7,-1.4 1.8,-0.1 2.9,1.1 5.1,1.2 z"
   id="path664" />
				<path
   fill="#e7e7e7"
   d="m 112.7,263.6 c 1.6,0.9 1.3,4.1 0.1,5.5 -0.3,-0.2 -0.2,-0.5 -0.6,-0.6 -0.3,-0.2 -0.2,-0.5 -0.6,-0.6 -0.1,-0.3 -0.2,-0.7 0,-1.2 0.5,0.2 0,1 0.8,1.1 0,-1.1 0.3,-2.3 -0.1,-3.1 -0.2,0.5 -0.3,0.9 -0.5,1.4 -0.6,-0.5 0.4,-2.3 0.9,-2.5 z"
   id="path666" />
				<path
   fill="#e7e7e7"
   d="m 130.3,284 c 2.2,0.5 6.7,-0.6 3.4,1.5 -0.7,0.5 -2.4,0.4 -2.9,-0.6 0.2,-0.4 -0.5,-0.5 -0.5,-0.9 z"
   id="path668" />
				<path
   fill="#e7e7e7"
   d="m 150.6,270.2 c 0.4,1.4 1.3,2.7 1.3,4.3 -1.2,-0.9 -2,-0.8 -2.6,-0.5 v 0 0 c -1,0.6 -1.5,2.1 -2.7,2.2 1,-2 0.5,-3.4 1.4,-5.4 0.9,0 1.7,-0.5 2.6,-0.6 z"
   id="path670" />
				<path
   fill="#cdcdcd"
   d="m 144.1,248.9 c 0.9,0.3 2,0.5 2.3,1.2 -0.6,0.7 -2.2,-0.6 -3.3,-0.7 0.1,-0.3 0.4,-0.3 0.6,-0.6 0.2,0 0.3,0.1 0.4,0.1 z"
   id="path672" />
				<path
   d="m 159.6,284.9 c -0.2,1 -0.9,1 -1.8,0.6 0.1,-0.5 0.4,-0.7 0.7,-0.9 0.1,0 0.2,0.1 0.3,0.1 0.4,0 0.6,0.1 0.8,0.2 z"
   id="path674" />
				<path
   fill="#a6a6a6"
   d="m 117.9,277.1 c -0.3,0.8 0.3,1.2 -0.4,2.2 -1.4,-1 -1,-3.7 -3.6,-3.2 0.2,-0.9 0.9,-0.9 1.3,-1.5 0.5,0.1 0.8,0.3 1.1,0.6 0.1,0.1 0.1,0.2 0.2,0.3 0.8,0.3 0.2,1.4 1.4,1.6 z"
   id="path676" />
				<path
   fill="#cdcdcd"
   d="m 119.6,285.8 c -0.3,1.3 -2.2,1.2 -2.8,0.2 -0.1,0 -0.2,-0.1 -0.3,-0.1 -0.2,-0.9 -1.5,-1.2 -0.7,-2.6 1.3,0.9 2.2,1.9 3.8,2.5 z"
   id="path678" />
				<path
   fill="#a6a6a6"
   d="m 155.1,289.2 c 0.6,1.6 -1.7,2.3 -2.6,3 -0.1,0 -0.2,-0.1 -0.4,-0.1 -1.3,-1.3 2.5,-1.5 3,-2.9 z"
   id="path680" />
				<path
   fill="#5c5c5c"
   d="m 122.6,288.4 c -0.1,0.7 1.3,0.7 0.6,1.8 -2,-1.1 -2.4,-2.2 -5,-2.5 0.6,-1.5 2.2,-1 3.2,-0.1 0.4,0.3 0.4,0.7 1.2,0.8 z"
   id="path682" />
				<path
   fill="#5c5c5c"
   d="m 159.9,286.5 c 0.1,-0.3 1.5,-0.7 1.2,0 -0.2,0.7 -0.5,1.4 -0.7,2.1 -1,0.7 -1.7,2.1 -2.6,3 0.5,-1.1 -1.7,-1.2 -0.1,-2 -1.7,-1.1 -3.8,1.8 -2.8,2.6 0.3,-0.9 1,-1.2 1.9,-0.9 -0.4,0.7 -0.3,1.1 0.3,1.3 -1,0.5 -1.3,2.4 -2.5,2.7 0.6,-0.9 -0.2,-1.1 0.2,-1.9 -0.7,-0.1 -1,0.8 -2,0.1 -0.9,1.8 -2.2,3.1 -4.3,2.4 -1.4,0.9 -2.3,2.7 -4.6,2 2.8,-2.8 8.2,-2.6 8.9,-5.6 -0.1,0 -0.2,-0.1 -0.3,-0.1 0.8,-0.7 3.1,-1.4 2.6,-3 -0.5,1.4 -4.3,1.6 -2.9,2.9 -0.7,0.2 -1.3,0.5 -1.9,0.9 0.2,-0.6 0.7,-0.6 0.8,-1.3 -1,0.5 -5.5,2 -3.6,2.7 -0.9,0.2 -1.8,0.4 -2.6,0.7 0.4,-0.2 0.6,-0.7 0.8,-1.3 -0.8,0.8 -5.6,1.3 -3.5,2.3 -1.3,0.2 -2.5,0.5 -3.8,0.7 0.8,-0.3 1.4,-0.9 1.4,-1.5 -1.2,1.1 -3.6,-0.2 -4.7,1.2 0.7,0.4 1.4,0.6 2,0.6 -1.3,0.2 -2.6,0.2 -4.1,-0.1 0.3,-0.2 0.6,-0.4 0.7,-0.9 -1.6,0.1 -3.6,-0.5 -5.3,-0.6 0,0.4 0.6,0.5 0.5,0.9 -1.5,-0.6 -2.1,0.4 -3.5,0 0.3,-0.7 1.4,0.1 1.7,-0.6 -1.3,-1 -3.7,-2.1 -5.1,-2.1 -0.5,0.9 1.2,0.8 1,1.5 -1.2,-0.6 -2,-0.5 -2.9,-0.6 0.2,-0.3 0.8,0 0.9,-0.5 -0.7,-0.8 -5,-3.9 -3.8,-1.3 -1.8,-0.6 -3.3,-0.3 -3.6,-2 0.6,0.5 1.1,1 1.9,1.4 0.6,-1.1 -2.8,-3.2 -2.2,-1.5 -0.2,-0.4 -0.7,-0.6 -1.3,-0.8 3.7,5.7 12,6.3 19.6,8.9 -1.4,1.4 -4,0.3 -5.5,-1.1 -3.7,1.4 -8.4,-3.7 -11.3,-3.4 -2,-1.4 -2.8,-3.5 -4.5,-5 -0.6,-1.8 -1.4,-3.4 -2.7,-4.8 0,-0.3 -0.2,-0.5 -0.1,-0.8 3.3,2.6 9.2,7.6 15.5,8.3 -0.2,0.3 -0.8,0 -0.9,0.5 1.7,0.1 4.1,1.8 3.7,0.5 1.4,1.1 2,0.6 3.4,0.4 -0.3,0.4 -0.8,0.3 -1.1,0.8 1.5,-0.3 3.7,0.9 5,0.1 1.4,0.4 1.9,-1 3,-0.9 -0.4,0.8 -1.4,0.2 -1.6,1.4 1.3,-0.7 5.6,0.3 4.7,-1.1 1,0.7 1.3,-0.2 2,-0.1 -0.2,0.2 -1.3,1.1 -0.5,1.4 0.6,-1.6 4.9,-1.7 4,-2.6 0.9,-0.1 1.8,-0.2 2.6,-0.7 -1.4,2.3 2.6,-1.1 3.6,-1.5 0.8,-0.4 1.3,-1.3 2.1,-1.6 -0.8,2.1 2.1,-0.5 2.7,-1 1.1,-0.6 1.6,-2.7 2.9,-2.9 -0.3,0.2 -0.6,0.4 -0.7,0.9 0.9,0.4 1.5,0.4 1.8,-0.6 -0.2,-0.1 -0.5,-0.2 -0.7,-0.2 0.2,-0.4 0.7,-0.1 1.2,0 -0.1,0.4 -1.1,1.5 -0.3,1.7 z m -4.2,2.1 c 0.9,1.6 3.8,-0.3 3,-2.1 -0.7,1.4 -2.1,1.3 -3,2.1 z"
   id="path684" />
				<path
   fill="#cdcdcd"
   d="m 133.1,288.4 c 1.8,-0.5 4.9,-1 6.3,-0.2 -0.8,1.3 -2.2,1.5 -3.4,2 -0.6,-0.2 -1.2,-0.4 -1.7,-0.6 0.2,-0.7 -1.1,-0.6 -1.2,-1.2 z"
   id="path686" />
				<path
   fill="#a6a6a6"
   d="m 161.4,268 c 0.6,1.1 -0.7,0.5 -0.9,1.6 -0.5,-0.2 -0.1,-0.7 -0.5,-0.9 0.1,-0.3 0.2,-0.7 0.4,-1 0.3,0 0.7,0.2 1,0.3 z"
   id="path688" />
				<path
   fill="#e7e7e7"
   d="m 139.6,278.5 c -0.4,-3.1 3,-3.4 3.8,-5.4 0.9,1.2 2.4,2.1 2.7,3.6 -0.9,-0.2 -1.6,-0.1 -2.3,0 0,1.1 -0.8,0.7 -0.9,1.6 -0.4,-0.1 -0.5,0.5 -0.7,0.9 -1,-0.1 -1.8,-0.4 -2.6,-0.7 z"
   id="path690" />
				<path
   fill="#cdcdcd"
   d="m 152.5,287.6 c 0.5,1.2 -1.6,2.2 -2.7,2.2 -0.5,-1.3 2.4,-0.6 2.7,-2.2 z"
   id="path692" />
				<path
   fill="#a6a6a6"
   d="m 111.5,264.8 c 0,-1.1 -0.7,-1.8 -0.6,-2.9 0.6,0.8 1.3,1.5 0.6,2.9 z"
   id="path694" />
				<path
   fill="#e7e7e7"
   d="m 116.5,275.4 c -0.1,-0.1 -0.2,-0.2 -0.2,-0.3 0.1,0.2 0.1,0.3 0.2,0.3 z"
   id="path696" />
				<path
   fill="#a6a6a6"
   d="m 110.3,289.3 c -0.8,-1.6 -2.1,-3 -2.7,-4.8 1.2,1.5 2.1,3.1 2.7,4.8 z"
   id="path698" />
				<path
   fill="#e7e7e7"
   d="m 155.7,276.9 c -0.2,0.7 -0.7,0.6 -0.8,1.3 -0.6,-0.2 -1.2,-0.4 -1.8,-0.6 0.3,-1.3 1.6,-0.6 2.6,-0.7 z"
   id="path700" />
				<path
   fill="#cdcdcd"
   d="m 108.4,277.4 c -0.8,-0.6 -0.7,-1.6 -1.2,-2.3 0.9,-0.6 1.3,1.5 1.2,2.3 z"
   id="path702" />
				<path
   fill="#5c5c5c"
   d="m 134.3,286.1 c -0.3,-0.9 2.2,-1.4 3.7,-0.7 -1,0.6 -2.9,-0.4 -3.7,0.7 z"
   id="path704" />
				<path
   fill="#e7e7e7"
   d="m 113.4,278.7 c 0.7,-0.9 3.4,2.4 1.3,2 -0.1,0 -0.2,-0.1 -0.3,-0.1 -0.1,-0.8 -0.5,-1.4 -1,-1.9 z"
   id="path706" />
				<path
   fill="#5c5c5c"
   d="m 157.5,281.9 c 0,1.3 -2.4,2.1 -3.6,2.7 0.1,-0.9 0.9,-0.5 0.9,-1.6 0.7,-0.9 1.5,-1.5 2.7,-1.1 z"
   id="path708" />
				<path
   fill="#cdcdcd"
   d="m 132.3,288.6 c -0.7,1.5 -2,1.8 -3.9,1 -0.1,0 -0.2,-0.1 -0.3,-0.1 0,-0.8 -1.6,-0.8 -1.4,-1.6 1.2,-1.2 3.9,0.7 5.6,0.7 z"
   id="path710" />
				<path
   fill="#5c5c5c"
   d="m 128.5,289.6 c 0,0.8 1.7,0.7 0.9,1.9 -1.2,-1.5 -4.5,-1.2 -5.5,-2.2 0.2,-0.3 0.5,-0.2 0.6,-0.6 0.1,0 0.2,0.1 0.3,0.1 1.2,-0.5 2,-0.1 3.3,0.7 0.1,0 0.2,0.1 0.4,0.1 z"
   id="path712" />
				<path
   fill="#cdcdcd"
   d="m 163.6,274.2 c 0.9,0.3 0.3,1.4 0,2.3 -0.5,-0.2 -0.9,-0.3 -1.4,-0.5 0,1.1 -0.6,3.6 -2.5,2.7 0.1,-1.8 2.9,-2.7 3.9,-4.5 z"
   id="path714" />
				<path
   fill="#a6a6a6"
   d="m 127.4,278.7 c -0.1,1.1 1.7,1.3 1,2.7 -0.8,-1.7 -2.9,-2.2 -4.8,-2 0.1,-1 0.9,-0.5 1.2,-1.2 0.7,-0.3 1.7,0.2 2.6,0.5 z"
   id="path716" />
				<path
   fill="#a6a6a6"
   d="m 150.7,274.5 c -0.3,1.6 -2,0.2 -2.2,2 -0.8,-0.7 0.6,-1.8 0.8,-2.4 v 0 0 c 0.4,0.1 0.9,0.2 1.4,0.4 z"
   id="path718" />
				<path
   fill="#a6a6a6"
   d="m 137.8,279.1 c 1,-0.1 2.9,-0.3 3.6,0.8 -1.9,0.4 -3.8,0.9 -5.6,1.6 0.1,-0.2 0.2,-0.5 0.2,-0.7 0.5,-0.8 1.5,-0.6 1.8,-1.7 z"
   id="path720" />
				<path
   fill="#cdcdcd"
   d="m 134.3,245.6 c 0.1,0.7 0.8,1.1 1.9,1.4 -0.8,1.2 -1.6,2.2 -3.3,1.6 0.3,-0.9 -0.3,-1.3 0.6,-1.7 -0.6,0.3 -1.4,0 -2.2,-0.4 0.5,-0.5 0.7,-1.7 1.4,-1.9 -0.8,-0.1 0,-0.9 -1,-1.5 1.8,-0.7 2.3,0.6 3.8,1.3 -0.3,0.7 -0.7,1.1 -1.2,1.2 z"
   id="path722" />
				<path
   fill="#cdcdcd"
   d="m 145.8,253 c 1.3,0.8 2.5,1.7 2.4,3.2 -2.1,-0.6 -5.7,-0.6 -5.1,-3.3 0.5,0.2 1,0.4 1.2,0 0.6,0.2 1.1,0.3 1.5,0.1 z"
   id="path724" />
				<path
   fill="#a6a6a6"
   d="m 139.8,295.3 c 0,0.6 -0.5,1.2 -1.4,1.5 -0.4,0.1 -0.9,0.1 -1.3,0.2 -0.6,0 -1.3,-0.2 -2,-0.6 1.1,-1.3 3.5,0 4.7,-1.1 z"
   id="path726" />
				<path
   fill="#cdcdcd"
   d="m 151.4,253.7 c -1,-0.4 -1.2,-1.1 -2.2,-1.5 0.7,-0.6 2.8,0.5 2.2,1.5 z"
   id="path728" />
				<path
   fill="#e7e7e7"
   d="m 154.7,267.3 c 2.2,0.7 2.1,2.6 1.5,4.8 -0.6,0 -1.7,-1 -1.9,-0.2 -0.1,0 -0.2,-0.1 -0.3,-0.1 -0.2,-0.3 -0.4,-0.5 -0.9,-0.7 -0.6,-1.3 0,-3.9 1.6,-3.8 z"
   id="path730" />
				<path
   fill="#cdcdcd"
   d="m 125.9,255.6 c 1.9,-0.1 2.8,-2.3 4.9,-1.8 -1.2,1.5 0.1,0.4 1,1.5 -2,0.2 -3.4,0.1 -5.9,0.3 z"
   id="path732" />
				<path
   d="m 147.2,291.6 c 0.9,-1.1 1.9,-2 3.6,-1.5 -0.9,0.4 -4.9,3.8 -3.6,1.5 z"
   id="path734" />
				<path
   fill="#a6a6a6"
   d="m 121.1,294.1 c -0.2,0.5 -0.7,0.1 -0.9,0.5 -1.5,-0.3 -2.1,-1.1 -2.9,-1.8 -1.2,-2.6 3.1,0.5 3.8,1.3 z"
   id="path736" />
				<path
   fill="#5c5c5c"
   d="m 116.8,286.1 c -0.3,1 1.5,1 0.8,2.2 -1.2,-1.1 -2.6,-2 -4.1,-2.9 1,-1.4 1.8,-0.2 2.9,0.6 0.2,0 0.3,0 0.4,0.1 z"
   id="path738" />
				<path
   fill="#5c5c5c"
   d="m 138.6,298.8 c 1.4,-0.7 2.7,-1.5 4.7,-1.2 -1,1.5 -3.5,2.3 -4.7,1.2 z"
   id="path740" />
				<path
   fill="#a6a6a6"
   d="m 151.1,291.8 c -0.1,0.7 -0.6,0.6 -0.8,1.3 -0.3,1.1 -1.2,1.1 -1.8,1.7 -0.4,-0.1 -0.7,-0.2 -1.1,-0.3 -1.8,-0.8 2.7,-2.2 3.7,-2.7 z"
   id="path742" />
				<path
   fill="#e7e7e7"
   d="m 125.3,249.2 c 0,3 -4,2.9 -5.7,4.3 0.6,-4.1 4.3,-1.8 5.7,-4.3 z"
   id="path744" />
				<path
   fill="#cdcdcd"
   d="m 130,273.4 c 1.7,0.5 3.1,1.2 2.6,2.8 -2,-1.5 -4.4,-1.2 -5.4,0.9 -0.6,-2.5 -2.3,-4.6 -5.4,-3.8 -0.4,0.2 -0.4,1 -1.1,2 -1,-1.5 -0.4,-3.7 -3.7,-4 0.4,-1 1.2,-1 2,-1.3 0.9,0.2 0.9,0.9 1.5,1.3 0.1,0 0.2,0.1 0.4,0.1 0,0.6 0.3,1 0.7,1.4 0.8,-0.5 1.6,-1.1 2.7,-1.1 2.1,0.4 2,1.9 2.9,2.9 0.1,-0.6 0.5,-0.5 0.7,-0.9 0.8,0.2 1.4,-0.2 2.1,-0.3 z"
   id="path746" />
				<path
   fill="#e7e7e7"
   d="m 141.3,282.6 c 0.2,0.2 0.3,0.4 0.1,0.8 -0.1,0.5 -0.4,0.7 -0.7,0.9 -0.6,0.4 -2.5,1.2 -3,-0.2 1.6,0.3 2.4,-1 3.6,-1.5 z"
   id="path748" />
				<path
   fill="#cdcdcd"
   d="m 137.4,254.8 c 2.4,0.9 4.4,2.1 4.4,4.2 -1.7,0.2 -4.4,-1.5 -6.2,-1.3 0.3,-1.7 1.5,-1.3 1.8,-2.9 z"
   id="path750" />
				<path
   fill="#cdcdcd"
   d="m 117.1,264.4 c -0.1,-1.1 2.1,-3.2 1.8,-5.2 0.8,0.4 0.4,1.3 0.9,1.9 -0.2,0.5 -0.3,0.9 -0.5,1.4 -0.7,0.6 -1.3,1.5 -2.2,1.9 z"
   id="path752" />
				<path
   fill="#e7e7e7"
   d="m 162.6,271.5 c -0.3,0.8 0.3,1.2 -0.4,2.2 -0.6,-0.2 -1.2,-0.4 -1.7,-0.6 0.2,-0.5 0.3,-0.9 0.5,-1.4 0.9,0.8 0.6,-1 1.6,-0.2 z"
   id="path754" />
				<path
   d="m 157.6,289.7 c -1.6,0.8 0.6,0.9 0.1,2 -0.3,0.2 -0.6,0.4 -0.7,0.9 -0.6,-0.2 -0.7,-0.6 -0.3,-1.3 -0.9,-0.3 -1.5,0 -1.9,0.9 -1,-0.7 1.1,-3.6 2.8,-2.5 z"
   id="path756" />
			</g>
		</g>
	</g>
</g>
</svg>
